<svg width="64" height="47" viewBox="0 0 64 47" fill="none" xmlns="http://www.w3.org/2000/svg">
<path d="M30.2949 11.6483L23.5873 23.2966H20.2256L26.9411 11.6483L24.9446 8.18465L20.2256 0H23.5873L30.2949 11.6483Z" fill="#FEFEFE"/>
<path d="M16.8797 11.6483L12.1685 19.825L10.172 23.2966H6.8103L13.5258 11.6483L6.8103 0H10.1641L16.8797 11.6483Z" fill="#FEFEFE"/>
<path d="M23.5872 11.6483L16.8795 23.2966H13.5257L20.2334 11.6483H20.2255L13.5178 0H16.8716L23.5872 11.6483Z" fill="#FEFEFE"/>
<path d="M30.2949 34.9449L23.5873 46.5932H20.2256L26.9411 34.9449L24.9446 31.4813L20.2256 23.2966H23.5873L30.2949 34.9449Z" fill="#E6E7E6"/>
<path d="M16.8797 34.9449L12.1685 43.1217L10.172 46.5932H6.8103L13.5258 34.9449L6.8103 23.2966H10.1641L16.8797 34.9449Z" fill="#E6E7E6"/>
<path d="M10.0693 11.6799L5.35033 19.8567L3.35382 23.3282H0L6.70764 11.6799L0 0.0316162H3.35382L10.0693 11.6799Z" fill="#FEFEFE"/>
<path d="M10.0693 34.9765L5.35033 43.1533L3.35382 46.6169H0L6.70764 34.9765L0 23.3282H3.35382L10.0693 34.9765Z" fill="#E6E7E6"/>
<path d="M23.5872 34.9449L16.8795 46.5932H13.5257L20.2334 34.9449H20.2255L13.5178 23.2966H16.8716L23.5872 34.9449Z" fill="#E6E7E6"/>
<path d="M43.7731 0L30.2947 23.2966L26.9409 23.2887L33.6722 11.6562L40.4114 0H43.7731Z" fill="#FEFEFE"/>
<path d="M43.6627 46.5932H40.3088L33.6328 34.9528L26.9409 23.2887L30.2947 23.2966L36.9866 34.9607L43.6627 46.5932Z" fill="#E6E7E6"/>
<path d="M50.4809 0.0158081L37.0104 23.3124L33.6487 23.3045L40.3879 11.672L47.1192 0.0158081H50.4809Z" fill="#FEFEFE"/>
<path d="M50.3704 46.609H47.0245L40.3405 34.9686L33.6487 23.3045L37.0104 23.3124L43.6943 34.9686L50.3704 46.609Z" fill="#E6E7E6"/>
<path d="M57.1965 0.0316162L43.7181 23.3282L40.3643 23.3203L47.0956 11.6878L53.8348 0.0316162H57.1965Z" fill="#FEFEFE"/>
<path d="M57.0781 46.6169H53.7322L47.0561 34.9765L40.3643 23.3203L43.7181 23.3282L50.4099 34.9844L57.0781 46.6169Z" fill="#E6E7E6"/>
<path d="M64.0065 0.0316162L50.5281 23.3282L47.1743 23.3203L53.9056 11.6878L60.6448 0.0316162H64.0065Z" fill="#FEFEFE"/>
<path d="M63.8961 46.6169H60.5422L53.8662 34.9765L47.1743 23.3203L50.5281 23.3282L57.22 34.9844L63.8961 46.6169Z" fill="#E6E7E6"/>
</svg>
