<svg width="34" height="27" viewBox="0 0 34 27" fill="none" xmlns="http://www.w3.org/2000/svg">
<path opacity="0.2" d="M6.38076 0.799805C9.24743 0.799805 11.3474 1.8998 12.6808 4.0998C14.0141 6.23314 14.6808 8.76647 14.6808 11.6998C14.6808 14.9665 13.9141 17.9331 12.3808 20.5998C10.9141 23.1998 8.98076 25.0665 6.58076 26.1998C5.24743 26.1998 4.4141 25.3331 4.08076 23.5998C6.14743 22.1998 7.54743 20.8998 8.28076 19.6998C9.0141 18.4331 9.38076 16.9331 9.38076 15.1998C9.44743 13.3331 8.6141 12.4331 6.88076 12.4998H5.38076C3.84743 12.4998 2.6141 11.9998 1.68076 10.9998C0.747428 9.99981 0.280762 8.63314 0.280762 6.8998C0.280762 4.96647 0.847428 3.46647 1.98076 2.3998C3.18076 1.33314 4.64743 0.799805 6.38076 0.799805ZM25.4808 0.799805C28.3474 0.799805 30.4474 1.8998 31.7808 4.0998C33.1141 6.23314 33.7808 8.76647 33.7808 11.6998C33.7808 14.9665 33.0141 17.9331 31.4808 20.5998C30.0141 23.1998 28.0808 25.0665 25.6808 26.1998C24.3474 26.1998 23.5141 25.3331 23.1808 23.5998C25.2474 22.1998 26.6474 20.8998 27.3808 19.6998C28.1141 18.4331 28.4808 16.9331 28.4808 15.1998C28.5474 13.3331 27.7141 12.4331 25.9808 12.4998H24.4808C22.9474 12.4998 21.7141 11.9998 20.7808 10.9998C19.8474 9.99981 19.3808 8.63314 19.3808 6.8998C19.3808 4.96647 19.9474 3.46647 21.0808 2.3998C22.2808 1.33314 23.7474 0.799805 25.4808 0.799805Z" fill="#17928A"/>
</svg>
