<?xml version="1.0" encoding="UTF-8"?>
<svg id="Camada_2" xmlns="http://www.w3.org/2000/svg" viewBox="0 0 841.89 358.34">
  <defs>
    <style>
      .cls-1 { fill: none; }
      .cls-2 { fill: #ea592d; }
      .cls-3 { fill: #ffffff; }
    </style>
  </defs>
  <g id="Camada_1-2" data-name="Camada_1">
    <g>
      <g>
        <g>
          <g>
            <polygon class="cls-3" points="100.79 90.01 147.86 117.72 183.14 97.39 136.07 69.68 100.79 90.01"/>
            <polygon class="cls-3" points="65.08 165.42 111.15 138.88 65.08 111.76 65.08 165.42"/>
            <polygon class="cls-3" points="65.73 110.21 112.8 137.92 146.2 118.68 99.13 90.97 65.73 110.21"/>
            <polygon class="cls-3" points="219.15 76.64 172.08 48.93 137.73 68.72 184.8 96.44 219.15 76.64"/>
          </g>
          <g>
            <polygon class="cls-3" points="65.73 174.35 112.8 202.06 146.2 182.81 99.13 155.1 65.73 174.35"/>
            <polygon class="cls-3" points="100.79 154.15 147.86 181.86 183.14 161.52 136.07 133.81 100.79 154.15"/>
            <polygon class="cls-3" points="65.08 229.56 111.15 203.01 65.08 175.9 65.08 229.56"/>
          </g>
          <g>
            <polygon class="cls-2" points="112.04 266.41 112.04 212.53 65.79 239.19 112.04 266.41"/>
            <polygon class="cls-2" points="65.08 240.7 65.08 294.43 111.2 267.85 65.08 240.7"/>
          </g>
        </g>
        <g>
          <path class="cls-3" d="M218.97,162.1h65.8v13.34h-52.07v26.94h47.53v13.34h-47.53v42.22h-13.73v-95.85Z"/>
          <path class="cls-3" d="M296.29,186.19h11.4l1.04,13.21c5.31-11.14,13.47-14.9,23.06-14.9,1.55,0,4.4.39,6.35,1.04v13.99c-3.63-1.04-7.25-1.17-8.81-1.17-12.56,0-19.82,9.58-19.82,23.83v35.75h-13.21v-71.75Z"/>
          <path class="cls-3" d="M341.88,222.06c0-21.76,12.95-37.43,35.49-37.43s34.19,15.28,34.19,37.43c0,2.2-.13,3.63-.52,5.83h-54.92c1.17,12.43,10.49,19.43,23.83,19.43,8.81,0,15.8-1.81,23.44-6.35l5.18,10.88c-8.03,5.05-17.49,7.64-29.4,7.64-24.35,0-37.3-15.28-37.3-37.43ZM397.83,216.88c-.78-12.43-7.51-20.08-20.46-20.08s-20.85,7.77-20.85,20.08h41.32Z"/>
          <path class="cls-3" d="M423.87,186.19h11.66l1.04,13.21c5.31-10.1,13.99-14.9,25.77-14.9,17.23,0,28.37,10.75,28.37,32.25v41.19h-13.21v-41.19c0-12.95-6.87-19.17-18.65-19.17-14.12,0-21.76,8.81-21.76,24.22v36.14h-13.21v-71.75Z"/>
          <path class="cls-3" d="M502.61,222.06c0-21.76,12.95-37.43,35.49-37.43s34.19,15.28,34.19,37.43c0,2.2-.13,3.63-.52,5.83h-54.92c1.16,12.43,10.49,19.43,23.83,19.43,8.81,0,15.8-1.81,23.44-6.35l5.18,10.88c-8.03,5.05-17.49,7.64-29.4,7.64-24.35,0-37.3-15.28-37.3-37.43ZM558.57,216.88c-.78-12.43-7.51-20.08-20.47-20.08s-20.85,7.77-20.85,20.08h41.32Z"/>
          <path class="cls-3" d="M584.6,186.19h11.4l1.04,13.21c5.31-11.14,13.47-14.9,23.05-14.9,1.55,0,4.4.39,6.35,1.04v13.99c-3.63-1.04-7.25-1.17-8.81-1.17-12.56,0-19.82,9.58-19.82,23.83v35.75h-13.21v-71.75Z"/>
          <path class="cls-3" d="M672.93,238.25c24.09,0,31.99,10.1,31.99,22.8,0,14.25-11.14,24.35-36.79,24.35s-36.27-10.1-36.27-24.35c0-6.99,2.72-12.56,6.99-16.19-3.24-2.72-5.31-6.48-5.31-11.79,0-6.35,4.14-10.75,8.42-13.08-3.11-3.63-4.53-8.16-4.53-13.34,0-12.95,9.46-22.02,30.7-22.02,3.89,0,7.38.26,10.49.91,1.17-9.58,10.36-14.12,20.85-14.38v12.56c-4.79,0-8.42,1.3-10.36,5.44,6.61,3.89,9.71,10.1,9.71,17.48,0,13.34-9.46,22.28-30.7,22.28-7.51,0-13.6-1.17-18.26-3.37-1.94,1.43-3.11,3.5-3.11,5.83,0,3.89,2.72,6.86,13.6,6.86h12.56ZM692.36,260.92c0-5.96-4.4-10.62-18.13-10.62h-14.38c-3.89,0-7.77-.26-11.4-1.04-3.11,3.37-4.01,7.38-4.01,11.66,0,7.64,6.61,13.73,23.7,13.73s24.22-6.09,24.22-13.73ZM650.39,206.65c0,6.73,4.66,11.4,17.74,11.4s17.74-4.66,17.74-11.4-4.4-11.14-17.74-11.14-17.74,4.53-17.74,11.14Z"/>
          <path class="cls-3" d="M763.47,186.19h13.34v63.85c0,21.11-9.07,35.36-37.82,35.36-6.22,0-13.08-1.17-16.84-2.72v-12.43c5.44,1.94,10.75,2.59,16.84,2.59,18.78,0,24.48-9.46,24.48-22.8v-7.9c-4.02,8.16-12.18,12.43-23.83,12.43-18.26,0-27.72-11.53-27.72-31.99v-36.39h13.21v34.71c0,14.12,6.22,20.98,18.78,20.98s19.56-9.07,19.56-22.28v-33.42Z"/>
        </g>
        <g>
          <path class="cls-2" d="M219.15,289.05c0-7.15,3.97-12.14,11.65-12.14s11.15,4.91,11.15,12.19c0,.91-.04,1.49-.17,2.35h-16.48c.5,3.39,3.26,4.83,6.82,4.83,2.48,0,4.59-.46,7.06-1.65l1.82,4.3c-2.6,1.53-5.45,2.23-9.42,2.23-8.34,0-12.43-4.87-12.43-12.1ZM236.08,287.4c0-3.55-1.78-5.62-5.29-5.62s-5.45,2.15-5.45,5.62h10.74Z"/>
          <path class="cls-2" d="M256.81,277.4h5.04l.54,3.88c1.49-2.85,3.97-4.38,7.52-4.38,5.29,0,8.55,3.26,8.55,9.96v13.8h-6.03v-13.8c0-3.06-1.57-4.59-4.38-4.59-3.43,0-5.25,1.82-5.25,5.95v12.43h-5.99v-23.26Z"/>
          <path class="cls-2" d="M293.15,289.05c0-7.15,3.97-12.14,11.65-12.14s11.15,4.91,11.15,12.19c0,.91-.04,1.49-.17,2.35h-16.48c.5,3.39,3.26,4.83,6.82,4.83,2.48,0,4.59-.46,7.06-1.65l1.82,4.3c-2.6,1.53-5.45,2.23-9.42,2.23-8.34,0-12.43-4.87-12.43-12.1ZM310.09,287.4c0-3.55-1.78-5.62-5.29-5.62s-5.45,2.15-5.45,5.62h10.74Z"/>
          <path class="cls-2" d="M330.81,277.4h5l.54,3.88c1.45-3.02,3.88-4.42,6.61-4.42.66,0,1.61.12,2.31.41v5.82c-1.24-.41-2.4-.5-3.06-.5-3.43,0-5.41,2.31-5.41,6.57v11.48h-5.99v-23.26Z"/>
          <path class="cls-2" d="M371.62,294.25c7.68,0,10.2,3.1,10.2,7.19,0,4.59-3.64,7.97-11.85,7.97s-11.73-3.39-11.73-7.97c0-2.35,1.16-4.01,2.15-4.87-.95-.91-1.53-2.07-1.53-3.59,0-2.23,1.4-3.68,2.52-4.42-.99-1.24-1.53-2.68-1.53-4.42,0-4.3,3.1-7.23,10.08-7.23,1.16,0,2.23.08,3.18.25.12-3.31,3.43-4.83,7.23-4.83v4.83c-1.2,0-2.52.25-3.3,1.36,2.02,1.28,3.02,3.26,3.02,5.62,0,4.38-3.18,7.27-10.08,7.27-1.9,0-3.68-.25-5-.66-.33.41-.54.87-.54,1.49,0,1.24.91,2.02,3.72,2.02h3.47ZM376.24,301.4c0-1.73-1.24-2.48-4.87-2.48h-3.35c-1.32,0-2.6-.08-3.51-.37-.62.91-.74,1.78-.74,2.85,0,1.98,1.69,3.64,6.2,3.64s6.28-1.65,6.28-3.64ZM365.59,284.13c0,1.69,1.2,2.97,4.38,2.97s4.34-1.28,4.34-2.97-1.07-2.93-4.34-2.93-4.38,1.24-4.38,2.93Z"/>
          <path class="cls-2" d="M395.77,274.84v-5.41h6.57v5.41h-6.57ZM396.1,300.65v-23.26h5.99v23.26h-5.99Z"/>
          <path class="cls-2" d="M444.34,294.71v4.79c-.83.95-2.73,1.65-4.38,1.65-2.35,0-4.63-1.11-5.45-3.84-1.28,2.11-3.51,3.84-7.19,3.84-6.65,0-10.41-4.42-10.41-11.98s4.75-12.27,11.65-12.27c2.64,0,4.96.66,6.9,1.78l.58-1.28h4.09v16.11c0,1.78.74,2.27,1.9,2.27.74,0,1.4-.29,2.31-1.07ZM434.14,289.83v-6.57c-1.4-.78-3.06-1.16-4.96-1.16-4.13,0-5.99,2.85-5.99,7.06s1.78,6.65,5.58,6.65,5.37-2.72,5.37-5.99Z"/>
          <path class="cls-2" d="M476.42,298.55l2.4-4.5c2.19,1.49,5.04,1.77,6.65,1.77,2.44,0,3.68-.66,3.68-1.77,0-1.32-1.86-1.9-3.92-2.48-4.42-1.2-8.09-2.77-8.09-7.52,0-4.34,3.06-7.15,8.67-7.15,2.77,0,5.49.37,8.43,1.9l-1.9,4.54c-2.35-.91-4.71-1.2-6.2-1.2-1.98,0-2.93.66-2.93,1.65,0,1.2,1.32,1.65,3.43,2.27,4.91,1.4,8.59,3.01,8.59,7.89,0,4.13-3.22,7.19-9.5,7.19-3.02,0-6.49-.45-9.29-2.6Z"/>
          <path class="cls-2" d="M508.92,289.05c0-7.43,4.13-12.14,12.43-12.14s12.43,4.71,12.43,12.14-4.17,12.1-12.43,12.1-12.43-4.71-12.43-12.1ZM527.51,289.05c0-4.46-1.82-6.82-6.15-6.82s-6.15,2.35-6.15,6.82,1.82,6.77,6.15,6.77,6.15-2.35,6.15-6.77Z"/>
          <path class="cls-2" d="M548.65,294.75v-23.75l5.99-1.41v23.92c0,1.78.7,2.27,1.86,2.27.78,0,1.4-.29,2.31-1.07v4.79c-.83.95-2.68,1.65-4.38,1.65-3.01,0-5.78-1.82-5.78-6.4Z"/>
          <path class="cls-2" d="M598.54,294.71v4.79c-.83.95-2.73,1.65-4.38,1.65-2.35,0-4.63-1.11-5.45-3.84-1.28,2.11-3.51,3.84-7.19,3.84-6.65,0-10.41-4.42-10.41-11.98s4.75-12.27,11.65-12.27c2.64,0,4.96.66,6.9,1.78l.58-1.28h4.09v16.11c0,1.78.74,2.27,1.9,2.27.74,0,1.4-.29,2.31-1.07ZM588.34,289.83v-6.57c-1.41-.78-3.06-1.16-4.96-1.16-4.13,0-5.99,2.85-5.99,7.06s1.78,6.65,5.58,6.65,5.37-2.72,5.37-5.99Z"/>
          <path class="cls-2" d="M612.16,277.4h5l.54,3.88c1.45-3.02,3.88-4.42,6.61-4.42.66,0,1.61.12,2.31.41v5.82c-1.24-.41-2.4-.5-3.06-.5-3.43,0-5.41,2.31-5.41,6.57v11.48h-5.99v-23.26Z"/>
        </g>
      </g>
      <rect class="cls-1" width="841.89" height="358.34"/>
    </g>
  </g>
</svg>
