<?xml version="1.0" encoding="UTF-8"?>
<svg id="Camada_2" xmlns="http://www.w3.org/2000/svg" viewBox="0 0 841.89 295">
  <defs>
    <style>
      .cls-1 { fill: none; }
      .cls-2 { fill: #ea592d; }
      .cls-3 { fill: #ffffff; }
    </style>
  </defs>
  <g id="Camada_1-2" data-name="Camada_1">
    <g>
      <g>
        <g>
          <g>
            <polygon class="cls-3" points="100.79 90.01 147.86 117.72 183.14 97.39 136.07 69.68 100.79 90.01"/>
            <polygon class="cls-3" points="65.08 165.42 111.15 138.88 65.08 111.76 65.08 165.42"/>
            <polygon class="cls-3" points="65.73 110.21 112.8 137.92 146.2 118.68 99.13 90.97 65.73 110.21"/>
            <polygon class="cls-3" points="219.15 76.64 172.08 48.93 137.73 68.72 184.8 96.44 219.15 76.64"/>
          </g>
          <g>
            <polygon class="cls-3" points="65.73 174.35 112.8 202.06 146.2 182.81 99.13 155.1 65.73 174.35"/>
            <polygon class="cls-3" points="100.79 154.15 147.86 181.86 183.14 161.52 136.07 133.81 100.79 154.15"/>
            <polygon class="cls-3" points="65.08 229.56 111.15 203.01 65.08 175.9 65.08 229.56"/>
          </g>
          <g>
            <polygon class="cls-2" points="112.04 266.41 112.04 212.53 65.79 239.19 112.04 266.41"/>
            <polygon class="cls-2" points="65.08 240.7 65.08 294.43 111.2 267.85 65.08 240.7"/>
          </g>
        </g>
        <g>
          <path class="cls-3" d="M218.97,162.1h65.8v13.34h-52.07v26.94h47.53v13.34h-47.53v42.22h-13.73v-95.85Z"/>
          <path class="cls-3" d="M296.29,186.19h11.4l1.04,13.21c5.31-11.14,13.47-14.9,23.06-14.9,1.55,0,4.4.39,6.35,1.04v13.99c-3.63-1.04-7.25-1.17-8.81-1.17-12.56,0-19.82,9.58-19.82,23.83v35.75h-13.21v-71.75Z"/>
          <path class="cls-3" d="M341.88,222.06c0-21.76,12.95-37.43,35.49-37.43s34.19,15.28,34.19,37.43c0,2.2-.13,3.63-.52,5.83h-54.92c1.17,12.43,10.49,19.43,23.83,19.43,8.81,0,15.8-1.81,23.44-6.35l5.18,10.88c-8.03,5.05-17.49,7.64-29.4,7.64-24.35,0-37.3-15.28-37.3-37.43ZM397.83,216.88c-.78-12.43-7.51-20.08-20.46-20.08s-20.85,7.77-20.85,20.08h41.32Z"/>
          <path class="cls-3" d="M423.87,186.19h11.66l1.04,13.21c5.31-10.1,13.99-14.9,25.77-14.9,17.23,0,28.37,10.75,28.37,32.25v41.19h-13.21v-41.19c0-12.95-6.87-19.17-18.65-19.17-14.12,0-21.76,8.81-21.76,24.22v36.14h-13.21v-71.75Z"/>
          <path class="cls-3" d="M502.61,222.06c0-21.76,12.95-37.43,35.49-37.43s34.19,15.28,34.19,37.43c0,2.2-.13,3.63-.52,5.83h-54.92c1.16,12.43,10.49,19.43,23.83,19.43,8.81,0,15.8-1.81,23.44-6.35l5.18,10.88c-8.03,5.05-17.49,7.64-29.4,7.64-24.35,0-37.3-15.28-37.3-37.43ZM558.57,216.88c-.78-12.43-7.51-20.08-20.47-20.08s-20.85,7.77-20.85,20.08h41.32Z"/>
          <path class="cls-3" d="M584.6,186.19h11.4l1.04,13.21c5.31-11.14,13.47-14.9,23.05-14.9,1.55,0,4.4.39,6.35,1.04v13.99c-3.63-1.04-7.25-1.17-8.81-1.17-12.56,0-19.82,9.58-19.82,23.83v35.75h-13.21v-71.75Z"/>
          <path class="cls-3" d="M672.93,238.25c24.09,0,31.99,10.1,31.99,22.8,0,14.25-11.14,24.35-36.79,24.35s-36.27-10.1-36.27-24.35c0-6.99,2.72-12.56,6.99-16.19-3.24-2.72-5.31-6.48-5.31-11.79,0-6.35,4.14-10.75,8.42-13.08-3.11-3.63-4.53-8.16-4.53-13.34,0-12.95,9.46-22.02,30.7-22.02,3.89,0,7.38.26,10.49.91,1.17-9.58,10.36-14.12,20.85-14.38v12.56c-4.79,0-8.42,1.3-10.36,5.44,6.61,3.89,9.71,10.1,9.71,17.48,0,13.34-9.46,22.28-30.7,22.28-7.51,0-13.6-1.17-18.26-3.37-1.94,1.43-3.11,3.5-3.11,5.83,0,3.89,2.72,6.86,13.6,6.86h12.56ZM692.36,260.92c0-5.96-4.4-10.62-18.13-10.62h-14.38c-3.89,0-7.77-.26-11.4-1.04-3.11,3.37-4.01,7.38-4.01,11.66,0,7.64,6.61,13.73,23.7,13.73s24.22-6.09,24.22-13.73ZM650.39,206.65c0,6.73,4.66,11.4,17.74,11.4s17.74-4.66,17.74-11.4-4.4-11.14-17.74-11.14-17.74,4.53-17.74,11.14Z"/>
          <path class="cls-3" d="M763.47,186.19h13.34v63.85c0,21.11-9.07,35.36-37.82,35.36-6.22,0-13.08-1.17-16.84-2.72v-12.43c5.44,1.94,10.75,2.59,16.84,2.59,18.78,0,24.48-9.46,24.48-22.8v-7.9c-4.02,8.16-12.18,12.43-23.83,12.43-18.26,0-27.72-11.53-27.72-31.99v-36.39h13.21v34.71c0,14.12,6.22,20.98,18.78,20.98s19.56-9.07,19.56-22.28v-33.42Z"/>
        </g>
      </g>
      <rect class="cls-1" width="841.89" height="358.34"/>
    </g>
  </g>
</svg>
