<svg width="257" height="148" viewBox="0 0 257 148" fill="none" xmlns="http://www.w3.org/2000/svg">
<g clip-path="url(#clip0_252_2655)">
<path d="M125.649 19.5181L114.429 38.9308H108.806L120.039 19.5181L116.699 13.7457L108.806 0.105469H114.429L125.649 19.5181Z" fill="#FEFEFE"/>
<path d="M103.209 19.5181L95.329 33.1452L91.9894 38.9308H86.3663L97.5994 19.5181L86.3663 0.105469H91.9762L103.209 19.5181Z" fill="#FEFEFE"/>
<path d="M114.429 19.5181L103.209 38.9308H97.5993L108.819 19.5181H108.806L97.5861 0.105469H103.196L114.429 19.5181Z" fill="#FEFEFE"/>
<path d="M125.649 58.3433L114.429 77.756H108.806L120.039 58.3433L116.699 52.5709L108.806 38.9307H114.429L125.649 58.3433Z" fill="#E6E7E6"/>
<path d="M103.209 58.3433L95.329 71.9704L91.9894 77.756H86.3663L97.5994 58.3433L86.3663 38.9307H91.9762L103.209 58.3433Z" fill="#E6E7E6"/>
<path d="M91.8178 19.5708L83.9243 33.1979L80.5848 38.9835H74.9749L86.1947 19.5708L74.9749 0.158203H80.5848L91.8178 19.5708Z" fill="#FEFEFE"/>
<path d="M91.8178 58.396L83.9243 72.0231L80.5848 77.7955H74.9749L86.1947 58.396L74.9749 38.9834H80.5848L91.8178 58.396Z" fill="#E6E7E6"/>
<path d="M114.429 58.3433L103.209 77.756H97.5993L108.819 58.3433H108.806L97.5861 38.9307H103.196L114.429 58.3433Z" fill="#E6E7E6"/>
<path d="M148.194 0.105469L125.649 38.9308L120.039 38.9176L131.298 19.5313L142.571 0.105469H148.194Z" fill="#FEFEFE"/>
<path d="M148.009 77.756H142.399L131.232 58.3565L120.039 38.9175L125.649 38.9307L136.842 58.3697L148.009 77.756Z" fill="#E6E7E6"/>
<path d="M159.414 0.131836L136.882 38.9571L131.259 38.9439L142.531 19.5577L153.791 0.131836H159.414Z" fill="#FEFEFE"/>
<path d="M159.229 77.7823H153.632L142.452 58.3829L131.259 38.9438L136.882 38.957L148.062 58.3829L159.229 77.7823Z" fill="#E6E7E6"/>
<path d="M170.647 0.158203L148.102 38.9835L142.492 38.9703L153.751 19.584L165.024 0.158203H170.647Z" fill="#FEFEFE"/>
<path d="M170.449 77.7955H164.852L153.685 58.396L142.492 38.9702L148.102 38.9834L159.295 58.4092L170.449 77.7955Z" fill="#E6E7E6"/>
<path d="M182.038 0.158203L159.493 38.9835L153.883 38.9703L165.143 19.584L176.415 0.158203H182.038Z" fill="#FEFEFE"/>
<path d="M181.854 77.7955H176.244L165.077 58.396L153.883 38.9702L159.493 38.9834L170.687 58.4092L181.854 77.7955Z" fill="#E6E7E6"/>
<path d="M16.4337 127.836C5.90028 127.836 0.0263672 121.708 0.0263672 112.035C0.0263672 102.374 5.90028 96.2461 16.4337 96.2461C19.0737 96.2461 22.6772 96.8523 25.106 97.6167V104.602H23.4956L21.41 101.096C19.7337 100.793 18.0177 100.595 16.4337 100.595C9.09463 100.595 5.25349 104.457 5.25349 112.035C5.25349 119.626 9.09463 123.474 16.4337 123.474C17.6613 123.474 18.9813 123.316 20.2353 123.065V114.064H25.106V126.466C22.6772 127.217 19.0737 127.836 16.4337 127.836Z" fill="#FEFEFE"/>
<path fill-rule="evenodd" clip-rule="evenodd" d="M59.2406 127.217L50.4231 115.224H46.318V127.217H41.5397V100.648L40.4441 96.8523H52.7463C59.0954 96.8523 62.9893 100.147 62.9893 106.064C62.9893 110.967 60.2042 113.959 55.6503 114.723L65.0749 127.217H59.2406ZM46.318 101.004V111.125H52.7331C56.099 111.125 58.013 109.359 58.013 106.064C58.013 102.783 56.099 101.004 52.7331 101.004H46.318Z" fill="#FEFEFE"/>
<path d="M90.3921 127.836C82.7891 127.836 78.0239 123.131 78.0239 115.421V96.8523H82.8419V115.421C82.8419 120.693 85.7854 123.474 90.3921 123.474C95.0121 123.474 97.9556 120.693 97.9556 115.421V100.397L94.2993 98.526V96.8523H102.76V115.421C102.76 123.131 97.9952 127.836 90.3921 127.836Z" fill="#FEFEFE"/>
<path fill-rule="evenodd" clip-rule="evenodd" d="M130.704 115.224H124.263V127.217H119.498V100.648L118.389 96.8523H130.704C137.053 96.8523 140.947 100.147 140.947 106.064C140.947 111.982 137.053 115.224 130.704 115.224ZM124.263 101.004V111.125H130.704C134.044 111.125 135.984 109.359 135.984 106.064C135.984 102.783 134.044 101.004 130.704 101.004H124.263Z" fill="#FEFEFE"/>
<path fill-rule="evenodd" clip-rule="evenodd" d="M168.113 127.836C159.137 127.836 153.514 121.761 153.514 112.035C153.514 102.322 159.137 96.2461 168.113 96.2461C177.075 96.2461 182.711 102.322 182.711 112.035C182.711 121.761 177.075 127.836 168.113 127.836ZM168.113 100.595C162.186 100.595 158.741 104.549 158.741 112.035C158.741 119.533 162.186 123.474 168.113 123.474C174.039 123.474 177.484 119.533 177.484 112.035C177.484 104.549 174.039 100.595 168.113 100.595Z" fill="#FEFEFE"/>
<path fill-rule="evenodd" clip-rule="evenodd" d="M209.375 127.217H197.772V100.648L196.651 96.8523H209.375C215.315 96.8523 219.064 100.147 219.064 105.208C219.064 107.936 217.533 110.466 215.064 111.876C217.533 113.247 219.209 115.935 219.209 118.769C219.209 123.724 215.724 127.217 209.375 127.217ZM209.375 100.898H202.524V109.899H209.375C212.358 109.899 214.101 108.278 214.101 105.405C214.101 102.519 212.358 100.898 209.375 100.898ZM209.375 113.959H202.524V123.171H209.375C212.411 123.171 214.246 121.55 214.246 118.571C214.246 115.58 212.411 113.959 209.375 113.959Z" fill="#E6E7E6"/>
<path d="M248.829 127.836C238.586 127.836 232.91 121.655 232.91 112.035C232.91 102.427 238.586 96.2461 248.829 96.2461C251.258 96.2461 254.558 96.8523 256.987 97.6167V104.602H255.31L253.291 101.056C251.76 100.793 250.189 100.595 248.829 100.595C241.807 100.595 238.124 104.496 238.124 112.035C238.124 119.586 241.807 123.474 248.829 123.474C251.417 123.474 254.347 122.92 256.987 122.116V126.466C254.558 127.217 251.258 127.836 248.829 127.836Z" fill="#E6E7E6"/>
<path d="M83.8583 147.71V136.614H90.8014V137.51H84.8879V141.622H90.8014V142.531H84.8879V146.801H90.8014V147.71H83.8583Z" fill="#FEFEFE"/>
<path d="M105.097 147.71L98.84 138.432V147.71H97.7972V136.614H98.84L105.097 145.878V136.614H106.113V147.71H105.097Z" fill="#FEFEFE"/>
<path d="M113.624 147.71V136.614H120.554V137.51H114.667V141.622H120.554V142.531H114.667V146.801H120.554V147.71H113.624Z" fill="#FEFEFE"/>
<path fill-rule="evenodd" clip-rule="evenodd" d="M134.07 147.71L130.348 142.768H128.606V147.71H127.563V136.614H131.575C133.582 136.614 134.875 137.681 134.875 139.697C134.875 141.701 133.582 142.768 131.575 142.768L135.298 147.71H134.07ZM128.606 137.536V141.846H131.575C132.975 141.846 133.806 141.068 133.806 139.697C133.806 138.327 132.975 137.536 131.575 137.536H128.606Z" fill="#FEFEFE"/>
<path d="M146.359 147.895C142.769 147.895 140.723 145.707 140.723 142.162C140.723 138.603 142.769 136.416 146.359 136.416C147.336 136.416 148.485 136.627 149.461 136.917V137.892C148.485 137.589 147.336 137.378 146.359 137.378C143.403 137.378 141.819 139.052 141.819 142.162C141.819 145.272 143.403 146.933 146.359 146.933C147.006 146.933 147.745 146.84 148.445 146.695V142.9H149.461V147.394C148.485 147.697 147.336 147.895 146.359 147.895Z" fill="#FEFEFE"/>
<path d="M157.579 147.71H156.497V136.614H157.579V147.71Z" fill="#FEFEFE"/>
<path fill-rule="evenodd" clip-rule="evenodd" d="M171.941 147.71L170.739 144.626H165.525L164.324 147.71H163.123L167.585 136.614H168.68L173.155 147.71H171.941ZM168.113 137.905L165.882 143.677H170.357L168.113 137.905Z" fill="#FEFEFE"/>
</g>
<defs>
<clipPath id="clip0_252_2655">
<rect width="257" height="148" fill="white"/>
</clipPath>
</defs>
</svg>
