<svg width="30" height="30" viewBox="0 0 30 30" fill="none" xmlns="http://www.w3.org/2000/svg">
<g clip-path="url(#clip0_96_218)">
<path d="M1.65758 11.8069C1.76448 11.8504 1.87893 11.8724 1.99436 11.8717C2.10979 11.8709 2.22393 11.8473 2.33023 11.8023L4.95916 10.6929C5.40617 10.5041 5.61582 9.98859 5.42697 9.54141C5.23836 9.09416 4.72267 8.88475 4.27549 9.07336L3.63254 9.34477C5.62765 4.80293 10.1422 1.81641 15.1652 1.81641C20.9083 1.81641 25.9236 5.69982 27.3614 11.2601C27.464 11.6563 27.8206 11.9193 28.2117 11.9193C28.2845 11.9193 28.3586 11.9101 28.4323 11.8911C28.9023 11.7696 29.1847 11.2901 29.0632 10.8202C27.4248 4.48383 21.7097 0.0585938 15.1652 0.0585938C9.40906 0.0585938 4.23951 3.50051 1.98552 8.7252L1.68886 8.02207C1.50008 7.57506 0.984568 7.36541 0.53738 7.55402C0.090134 7.74287 -0.11928 8.2585 0.0693332 8.70551L1.17869 11.3344C1.22355 11.4408 1.28892 11.5372 1.37108 11.6183C1.45324 11.6994 1.55058 11.7635 1.65752 11.8069H1.65758ZM29.9306 21.2329L28.8212 18.6042C28.7306 18.3894 28.5584 18.2194 28.3424 18.1315C28.1264 18.0439 27.8845 18.0455 27.6697 18.1361L25.0408 19.2458C24.5938 19.4344 24.3841 19.9501 24.573 20.3972C24.7616 20.8445 25.2772 21.0539 25.7244 20.8651L26.4603 20.5545C24.515 25.2182 19.9374 28.3003 14.835 28.3003C9.0916 28.3003 4.07633 24.4169 2.63849 18.8566C2.51697 18.3865 2.03744 18.1045 1.56758 18.2256C1.09765 18.3472 0.815232 18.8267 0.936755 19.2966C2.5751 25.6329 8.29027 30.0581 14.835 30.0581C20.6234 30.0581 25.8188 26.5773 28.0522 21.3029L28.3111 21.9164C28.4527 22.2521 28.7784 22.4537 29.1213 22.4537C29.235 22.4537 29.3511 22.4316 29.4625 22.3844C29.9098 22.1956 30.1192 21.6801 29.9306 21.2329Z" fill="#E9CD4D"/>
<path d="M13.2377 24.7328C13.4079 24.7941 13.5929 24.8014 13.7674 24.7536C13.9419 24.7058 14.0974 24.6053 14.2127 24.4659L21.5755 15.56C21.6817 15.4314 21.7492 15.2753 21.7701 15.1098C21.791 14.9443 21.7643 14.7763 21.6933 14.6254C21.6222 14.4746 21.5097 14.3471 21.369 14.2578C21.2282 14.1685 21.0649 14.121 20.8982 14.121H17.6954V6.15241C17.6954 5.97146 17.6395 5.79493 17.5355 5.64689C17.4315 5.49885 17.2843 5.38653 17.114 5.32524C16.9438 5.26407 16.7588 5.25689 16.5843 5.30468C16.4098 5.35248 16.2543 5.45292 16.139 5.59231L8.77624 14.4984C8.66997 14.6269 8.60247 14.783 8.58161 14.9485C8.56075 15.114 8.5874 15.2819 8.65844 15.4328C8.72948 15.5837 8.84199 15.7113 8.98282 15.8006C9.12365 15.8899 9.28699 15.9374 9.45376 15.9373H12.6565V23.9058C12.6564 24.0868 12.7121 24.2633 12.8162 24.4113C12.9202 24.5593 13.0674 24.6716 13.2377 24.7328ZM11.3206 14.1795L15.9376 8.59483V14.9998C15.9376 15.4853 16.331 15.8787 16.8165 15.8787H19.0309L14.4141 21.4635V15.0584C14.4141 14.573 14.0204 14.1795 13.5352 14.1795H11.3206Z" fill="#E9CD4D"/>
</g>
<defs>
<clipPath id="clip0_96_218">
<rect width="30" height="30" rx="5" fill="white"/>
</clipPath>
</defs>
</svg>
