<svg width="31" height="31" viewBox="0 0 31 31" fill="none" xmlns="http://www.w3.org/2000/svg">
<mask id="mask0_96_222" style="mask-type:luminance" maskUnits="userSpaceOnUse" x="0" y="-1" width="31" height="32">
<path d="M5.56934 0.642715C3.1669 0.642715 1.21934 2.59028 1.21934 4.99272V25.1825C1.21934 27.5849 3.1669 29.5325 5.56934 29.5325H25.7591C28.1616 29.5325 30.1091 27.5849 30.1091 25.1825V4.99272C30.1091 2.59028 28.1616 0.642715 25.7591 0.642715H5.56934Z" fill="white" stroke="white" stroke-width="1.3"/>
</mask>
<g mask="url(#mask0_96_222)">
<path d="M21.6641 2.68144H24.5319C26.1888 2.68144 27.5319 4.02459 27.5319 5.68144V26.2981C27.5319 27.9549 26.1888 29.2981 24.5319 29.2981H6.79614C5.13929 29.2981 3.79614 27.9549 3.79614 26.2981V5.68145C3.79614 4.02459 5.13929 2.68144 6.79614 2.68144H9.72661" stroke="#E9CD4D" stroke-width="1.3" stroke-miterlimit="10" stroke-linecap="round" stroke-linejoin="round"/>
<path d="M9.72656 3.09146C9.72656 1.86859 10.7179 0.87726 11.9408 0.87726H19.4498C20.6727 0.87726 21.664 1.86859 21.664 3.09146V3.09146C21.664 4.31433 20.6727 5.30566 19.4498 5.30566H11.9408C10.7179 5.30566 9.72656 4.31433 9.72656 3.09146V3.09146Z" stroke="#E9CD4D" stroke-width="1.3" stroke-miterlimit="10" stroke-linecap="round" stroke-linejoin="round"/>
</g>
<path d="M11.9042 20.4155H9.03296" stroke="#E9CD4D" stroke-width="1.3" stroke-miterlimit="10" stroke-linecap="round" stroke-linejoin="round"/>
<path d="M11.9042 16.882H9.03296" stroke="#E9CD4D" stroke-width="1.3" stroke-miterlimit="10" stroke-linecap="round" stroke-linejoin="round"/>
<path d="M14.3497 13.3485H9.03296" stroke="#E9CD4D" stroke-width="1.3" stroke-miterlimit="10" stroke-linecap="round" stroke-linejoin="round"/>
<path d="M14.3497 9.81506H9.03296" stroke="#E9CD4D" stroke-width="1.3" stroke-miterlimit="10" stroke-linecap="round" stroke-linejoin="round"/>
<path d="M17.8142 15.8985C17.382 16.605 17.8904 17.5121 18.7186 17.5121H18.9786C19.559 17.5121 19.9754 18.0714 19.8089 18.6274V18.6274C19.519 19.5954 20.8388 20.1922 21.3742 19.3351L23.4497 16.0124C23.9018 15.2886 23.3417 14.3575 22.4904 14.4179L22.271 14.4334C21.6915 14.4745 21.2329 13.9512 21.3496 13.3821V13.3821C21.547 12.4196 20.2548 11.9099 19.7419 12.748L17.8142 15.8985Z" stroke="#E9CD4D" stroke-width="1.3" stroke-miterlimit="10" stroke-linecap="round" stroke-linejoin="round"/>
</svg>
