<svg width="29" height="35" viewBox="0 0 29 35" fill="none" xmlns="http://www.w3.org/2000/svg">
<path d="M23.2999 17.2777H12.2238M8.81827 17.2777H6.50437M17.1302 9.75909L17.5882 9.09638C17.8867 8.66437 17.5774 8.07484 17.0523 8.07484V8.07484C16.5619 8.07484 16.2475 7.55337 16.4763 7.11964L17.0162 6.09626C17.4902 5.19785 16.8388 4.11768 15.823 4.11768H15.4669C14.8931 4.11768 14.3654 4.43194 14.092 4.93645L12.1574 8.50673C11.8645 9.04728 12.2558 9.70448 12.8706 9.70448V9.70448C13.3187 9.70448 13.6819 10.0677 13.6819 10.5157V10.9034C13.6819 12.0789 15.1979 12.5522 15.8667 11.5855L17.1302 9.75909ZM27.9413 29.3793V28.6129C27.9413 26.8269 26.8924 25.2074 25.2626 24.477V24.477C24.0834 23.9485 22.7347 23.9485 21.5555 24.477V24.477C19.9257 25.2074 18.8769 26.8269 18.8769 28.6129V29.3793C18.8769 31.1526 20.0283 32.5257 21.329 33.5108C22.5543 34.4388 24.2638 34.4388 25.4892 33.5108C26.7898 32.5257 27.9413 31.1526 27.9413 29.3793ZM13.7472 23.6462H8.09409C7.21505 23.6462 6.50244 24.3588 6.50244 25.2379V25.2379C6.50244 26.1169 7.21505 26.8295 8.09409 26.8295H13.7472C14.6262 26.8295 15.3388 26.1169 15.3388 25.2379V25.2379C15.3388 24.3588 14.6262 23.6462 13.7472 23.6462Z" stroke="#E9CD4D" stroke-width="1.3" stroke-miterlimit="10" stroke-linecap="round" stroke-linejoin="round"/>
<path d="M18.9398 30.0128H6.64331C4.98646 30.0128 3.64331 28.6696 3.64331 27.0128V3.93433C3.64331 2.27747 4.98646 0.934326 6.64331 0.934326H23.1603C24.8171 0.934326 26.1603 2.27747 26.1603 3.93433V24.8801M21.8386 29.5079V29.5079C22.4393 30.0173 23.3399 29.9405 23.8457 29.3367L24.9809 27.9816" stroke="#E9CD4D" stroke-width="1.3" stroke-miterlimit="10" stroke-linecap="round" stroke-linejoin="round"/>
<path d="M20.5538 32.8547H3.80298C2.14613 32.8547 0.802979 31.5115 0.802979 29.8547V6.61449C0.802979 5.04589 2.07458 3.77429 3.64318 3.77429V3.77429M6.50484 20.4626H17.5791M20.9846 20.4626H23.3004" stroke="#E9CD4D" stroke-width="1.3" stroke-miterlimit="10" stroke-linecap="round" stroke-linejoin="round"/>
</svg>
