<svg width="33" height="33" viewBox="0 0 33 33" fill="none" xmlns="http://www.w3.org/2000/svg">
<g clip-path="url(#clip0_120_2)">
<path d="M13.2002 0.00342188C12.7584 0.00181594 12.4952 0.495464 12.7428 0.86135C13.1133 1.42646 13.5514 2.0278 14.1558 2.50208C14.7603 2.97637 15.5453 3.30853 16.5009 3.30853C17.4566 3.30853 18.2424 2.97646 18.8471 2.50208C19.1049 2.29992 19.2436 2.0377 19.4485 1.80198C19.4974 2.10096 19.4849 2.38637 19.5934 2.6857C19.8506 3.39517 20.3437 4.08117 21.174 4.56054C21.9941 5.03403 22.8142 5.15153 23.5524 5.05018C23.8686 5.00673 24.1183 4.8497 24.4061 4.74951C24.3059 5.03742 24.1489 5.28687 24.1054 5.60315C24.004 6.34108 24.1216 7.16145 24.595 7.98155C25.0744 8.81191 25.7602 9.30484 26.4699 9.56215C26.7573 9.66627 27.0309 9.6519 27.3182 9.7008C26.6663 10.2746 26.0778 10.9571 25.903 11.9804C25.7555 12.7192 26.8793 12.9118 26.9865 12.1662C27.1717 11.0823 27.9712 10.4233 28.8978 9.81571C29.3402 9.52468 29.1559 8.83787 28.6272 8.80745C27.9827 8.77149 27.3631 8.71725 26.8447 8.52935C26.3263 8.34128 25.9012 8.04632 25.5465 7.43196C25.1859 6.80725 25.1221 6.28684 25.1953 5.75367C25.2686 5.2204 25.5023 4.67233 25.788 4.10544C26.0256 3.63204 25.5223 3.12947 25.0493 3.36778C24.4834 3.65363 23.9365 3.8873 23.4032 3.96046C22.8698 4.03353 22.3484 3.97089 21.7238 3.60938C21.1094 3.25465 20.8153 2.83059 20.6275 2.31232C20.4397 1.79404 20.385 1.17424 20.3483 0.528832C20.317 0.000656086 19.6307 -0.182778 19.3401 0.259302C18.9948 0.787031 18.6173 1.28496 18.1686 1.63693C17.7198 1.9889 17.2137 2.20927 16.501 2.20927C15.7883 2.20927 15.2831 1.9889 14.8345 1.63693C14.3859 1.28496 14.0082 0.786407 13.662 0.258231C13.6125 0.180533 13.5443 0.116514 13.4636 0.0720535C13.3829 0.0275927 13.2924 0.00411569 13.2003 0.00377875L13.2002 0.00342188ZM12.4239 2.75761C12.344 2.76254 12.2661 2.78477 12.1957 2.82278C12.1252 2.86078 12.0639 2.91365 12.0159 2.97771C11.8376 3.20914 11.6055 3.42015 11.2782 3.60911C10.6536 3.96973 10.1331 4.03353 9.59994 3.96019C9.06677 3.88685 8.51861 3.65319 7.95171 3.36751C7.47832 3.12992 6.97575 3.63329 7.21405 4.10624C7.49991 4.67198 7.73357 5.21898 7.80673 5.75233C7.87989 6.28568 7.81628 6.80707 7.45557 7.43169C7.10083 8.04605 6.67678 8.34021 6.15842 8.52802C5.64014 8.71582 5.02025 8.77051 4.37484 8.80718C3.84667 8.83859 3.66323 9.52477 4.10531 9.81544C5.03114 10.4212 5.83027 11.0806 6.01558 12.1648C6.11836 12.9153 7.25063 12.7223 7.09905 11.9802C6.92427 10.957 6.3356 10.2743 5.68386 9.70053C5.97106 9.65173 6.24487 9.666 6.53215 9.56188C7.24162 9.30475 7.92754 8.81164 8.407 7.98128C8.88048 7.16118 8.99798 6.34108 8.89663 5.60289C8.85327 5.28669 8.69616 5.03706 8.59596 4.74924C8.88387 4.84934 9.13333 5.00646 9.44961 5.04991C10.1875 5.15126 11.0079 5.03331 11.828 4.56027C12.2704 4.30493 12.6216 3.99329 12.8878 3.64757C13.1827 3.27517 12.8982 2.72915 12.4239 2.75761ZM16.501 4.95774C12.4593 4.95774 9.1352 8.08504 8.82784 12.0521C8.76334 12.7897 9.87447 12.8757 9.92416 12.1368C10.1879 8.73286 13.0251 6.0571 16.501 6.0571C19.9769 6.0571 22.8141 8.73277 23.0779 12.1368C23.1276 12.8756 24.2387 12.7896 24.1742 12.0521C23.8668 8.08513 20.5427 4.95774 16.501 4.95774ZM4.39955 13.752C3.68259 13.7686 3.68259 14.8356 4.39955 14.8515H7.55862L6.90366 17.6025H3.87985L4.18802 16.678C4.32193 16.2984 4.01618 15.9084 3.61568 15.9478C3.50859 15.9583 3.40694 16 3.32334 16.0678C3.23974 16.1356 3.17787 16.2264 3.14541 16.329L0.0282774 25.6751C-0.0892238 26.03 0.174061 26.3962 0.547977 26.3977H13.7542V29.6974H11.5541C11.4083 29.6969 11.2683 29.7543 11.1648 29.857C11.0613 29.9597 11.0028 30.0993 11.0022 30.245V32.4452C11.0019 32.5177 11.016 32.5896 11.0436 32.6567C11.0713 32.7238 11.1119 32.7848 11.1632 32.8361C11.2145 32.8874 11.2755 32.928 11.3426 32.9557C11.4097 32.9833 11.4815 32.9974 11.5541 32.9971H21.4478C21.5205 32.9975 21.5925 32.9835 21.6597 32.9559C21.7269 32.9284 21.788 32.8877 21.8394 32.8364C21.8908 32.7851 21.9316 32.7241 21.9593 32.657C21.987 32.5898 22.0011 32.5178 22.0008 32.4452V30.245C22.0005 30.1728 21.986 30.1012 21.9581 30.0346C21.9301 29.9679 21.8893 29.9074 21.8379 29.8565C21.7865 29.8057 21.7257 29.7654 21.6587 29.7381C21.5918 29.7108 21.5201 29.697 21.4478 29.6974H19.2488V28.0396C19.2488 27.3064 18.1492 27.3064 18.1492 28.0396V29.6974H14.8539V26.3977H32.4379C33.1874 26.4143 33.1874 25.2816 32.4379 25.2982H27.9302L27.2763 22.5505H30.7564L31.1806 23.825C31.401 24.5441 32.48 24.183 32.2232 23.4761L29.1103 14.13C29.0741 14.0199 29.0041 13.9241 28.9102 13.8562C28.8162 13.7883 28.7033 13.7519 28.5874 13.752L4.39955 13.752ZM8.68929 14.8515H11.4972L11.2351 17.6025H8.03433L8.68929 14.8515ZM12.6022 14.8515H15.9491V17.6025H12.3402L12.6022 14.8515ZM17.0486 14.8515H20.3999L20.6619 17.6025H17.0486V14.8515ZM21.5048 14.8515H24.3116L24.9666 17.6025H21.7656L21.5048 14.8515ZM25.4433 14.8515H28.1932L29.1092 17.6025H26.0983L25.4433 14.8515ZM3.5137 18.7021H6.64162L5.98774 21.4509H2.59671L3.5137 18.7021ZM7.77229 18.7021H11.13L10.8679 21.4509H7.11734L7.77229 18.7021ZM12.236 18.7021H15.9491V21.4509H11.9741L12.236 18.7021ZM17.0486 18.7021H20.766L21.0281 21.4509H17.0486V18.7021ZM21.8709 18.7021H25.2286L25.8825 21.4509H22.1318L21.8709 18.7021ZM26.3603 18.7021H29.4753L30.3902 21.4509H27.0142L26.3603 18.7021ZM2.23056 22.5505H5.72678L5.07289 25.2982H1.31463L2.23056 22.5505ZM6.8553 22.5505H10.7638L10.5018 25.2982H6.20035L6.8553 22.5505ZM11.8688 22.5505H15.9491V25.2982H11.6079L11.8688 22.5505ZM17.0486 22.5505H21.1333L21.3942 25.2982H17.0486V22.5505ZM22.236 22.5505H26.1445L26.7984 25.2982H22.4969L22.236 22.5505ZM12.1017 30.797H20.9002V31.8976H12.1017V30.797Z" fill="#E9CD4D"/>
</g>
<defs>
<clipPath id="clip0_120_2">
<rect width="33" height="33" fill="white"/>
</clipPath>
</defs>
</svg>
