<svg width="37" height="43" viewBox="0 0 37 43" fill="none" xmlns="http://www.w3.org/2000/svg">
<g clip-path="url(#clip0_96_166)">
<path d="M35.4748 22.5846H31.7311L33.2572 10.9769C33.2922 10.7137 33.2339 10.4465 33.0923 10.2211C32.9507 9.99566 32.7346 9.82591 32.4808 9.7408C31.9556 9.56131 31.3869 9.76478 31.1352 10.1883L28.0196 14.3393C26.4928 8.08669 20.7734 3.52942 14.159 3.52942C6.2939 3.52942 -0.104004 9.87112 -0.104004 17.6672C-0.104004 25.4632 6.2939 31.8049 14.159 31.8049C16.0697 31.8014 17.9603 31.4189 19.7196 30.6799C21.4788 29.941 23.071 28.8605 24.4024 27.5021H25.1131L23.5869 39.1098C23.552 39.3731 23.6102 39.6402 23.7518 39.8656C23.8934 40.0911 24.1095 40.2608 24.3633 40.3459C24.4935 40.3902 24.6262 40.4111 24.7565 40.4111C25.1515 40.4111 25.5192 40.2168 25.709 39.8984L36.8701 25.0286C37.1759 24.524 37.1839 23.916 36.8912 23.4034C36.5985 22.8907 36.0689 22.5846 35.4748 22.5846ZM14.159 30.5755C6.97853 30.5755 1.13626 24.7846 1.13626 17.6672C1.13626 10.5497 6.97853 4.75879 14.159 4.75879C20.5613 4.75879 26.0408 9.4353 27.0187 15.6725L25.9149 17.1434C25.6358 10.9474 20.4776 5.98816 14.159 5.98816C7.66191 5.98816 2.37652 11.2271 2.37652 17.6672C2.37652 24.1072 7.66191 29.3462 14.159 29.3462C16.5193 29.3462 18.7728 28.6534 20.7114 27.3527C20.9154 27.4425 21.1343 27.5021 21.3693 27.5021H22.5904C20.234 29.4809 17.2474 30.5696 14.159 30.5755ZM19.974 25.0581C19.8492 25.2648 19.7736 25.4969 19.7529 25.7369C19.7321 25.9768 19.7668 26.2183 19.8543 26.443C18.1607 27.5385 16.1814 28.1202 14.159 28.1168C8.34592 28.1168 3.61679 23.4292 3.61679 17.6672C3.61679 11.9051 8.34592 7.21752 14.159 7.21752C19.9722 7.21752 24.7013 11.9051 24.7013 17.6672C24.7013 18.0685 24.674 18.4669 24.6281 18.8578L19.974 25.0587V25.0581ZM35.8413 24.3445L24.8551 38.977L26.4339 26.9667C26.4452 26.8801 26.4377 26.7921 26.412 26.7085C26.3863 26.6249 26.3429 26.5478 26.2848 26.4821C26.2267 26.4165 26.1551 26.3639 26.0748 26.3277C25.9946 26.2916 25.9075 26.2729 25.8194 26.2727H21.3693C21.3006 26.2734 21.233 26.2556 21.1736 26.2213C21.1142 26.187 21.0653 26.1375 21.032 26.0779C20.9985 26.0195 20.9327 25.8646 21.0028 25.7423L31.9891 11.1097L30.4102 23.12C30.399 23.2067 30.4064 23.2947 30.4321 23.3782C30.4579 23.4618 30.5012 23.5389 30.5594 23.6046C30.6175 23.6702 30.6891 23.7229 30.7693 23.759C30.8496 23.7951 30.9366 23.8138 31.0248 23.814H35.4748C35.6789 23.814 35.7781 23.9505 35.8122 24.0089C35.8457 24.0672 35.9114 24.2221 35.8413 24.3445Z" fill="#E9CD4D"/>
<path d="M14.7792 17.2252V12.1836C16.4666 12.4362 17.3261 13.6496 17.3639 13.7049C17.4091 13.7721 17.4672 13.8298 17.5349 13.8747C17.6026 13.9196 17.6785 13.9508 17.7584 13.9666C17.8382 13.9824 17.9205 13.9825 18.0004 13.9668C18.0803 13.9511 18.1563 13.92 18.224 13.8752C18.2918 13.8304 18.35 13.7728 18.3953 13.7057C18.4406 13.6386 18.4721 13.5633 18.488 13.4842C18.504 13.405 18.504 13.3235 18.4882 13.2443C18.4724 13.1651 18.441 13.0898 18.3958 13.0226C18.3425 12.9427 17.1456 11.2124 14.7792 10.9431V10.2897C14.7792 10.1267 14.7138 9.97036 14.5975 9.85509C14.4812 9.73981 14.3235 9.67505 14.159 9.67505C13.9946 9.67505 13.8368 9.73981 13.7205 9.85509C13.6042 9.97036 13.5389 10.1267 13.5389 10.2897V10.9462C11.4391 11.2032 9.81812 12.738 9.81812 14.5925C9.81812 16.7144 11.7139 17.4938 13.5389 18.1079V23.1495C11.854 22.8969 10.9945 21.6872 10.9523 21.6257C10.8604 21.4912 10.7184 21.3982 10.5574 21.3671C10.3965 21.336 10.2297 21.3694 10.0935 21.4599C9.95729 21.5505 9.86282 21.6908 9.83074 21.8502C9.79866 22.0096 9.83158 22.1751 9.9223 22.3105C9.97563 22.3904 11.1725 24.1207 13.5389 24.39V25.0434C13.5389 25.2064 13.6042 25.3627 13.7205 25.478C13.8368 25.5933 13.9946 25.6581 14.159 25.6581C14.3235 25.6581 14.4812 25.5933 14.5975 25.478C14.7138 25.3627 14.7792 25.2064 14.7792 25.0434V24.3869C16.8789 24.13 18.5 22.5951 18.5 20.7406C18.5 18.6187 16.6042 17.8393 14.7792 17.2252ZM11.0584 14.5937C11.0584 13.4062 12.1256 12.4135 13.5389 12.1848V16.8042C11.9811 16.2472 11.0584 15.7155 11.0584 14.5937ZM14.7792 23.1495V18.5302C16.3369 19.0871 17.2597 19.6188 17.2597 20.7406C17.2597 21.9282 16.1925 22.9209 14.7792 23.1495Z" fill="#E9CD4D"/>
</g>
<defs>
<clipPath id="clip0_96_166">
<rect width="37" height="43" rx="5" fill="white"/>
</clipPath>
</defs>
</svg>
