<svg width="56" height="56" viewBox="0 0 56 56" fill="none" xmlns="http://www.w3.org/2000/svg">
<mask id="mask0_1040_5923" style="mask-type:luminance" maskUnits="userSpaceOnUse" x="0" y="0" width="56" height="56">
<path d="M0.974792 0.147751H56V55.173H0.974792V0.147751Z" fill="white"/>
</mask>
<g mask="url(#mask0_1040_5923)">
<path d="M30.7443 44.4258H13.8713C7.9358 44.4258 3.12421 39.6142 3.12421 33.6787V13.0443C3.12421 7.10875 7.9358 2.29717 13.8713 2.29717H43.1035C49.039 2.29717 53.8506 7.10875 53.8506 13.0443V16.9132" stroke="#E9CD4D" stroke-width="3" stroke-miterlimit="10" stroke-linecap="round" stroke-linejoin="round"/>
<path d="M13.8713 22.7167H29.3472" stroke="#E9CD4D" stroke-width="3" stroke-miterlimit="10" stroke-linecap="round" stroke-linejoin="round"/>
<path d="M13.8713 31.3144H23.6512" stroke="#E9CD4D" stroke-width="3" stroke-miterlimit="10" stroke-linecap="round" stroke-linejoin="round"/>
<path d="M45.8382 23.4994L46.3152 24.2175C46.5343 24.5473 46.8467 24.8044 47.2126 24.956C47.5784 25.1075 47.9811 25.1466 48.3693 25.0684L49.2143 24.8978C50.6111 24.616 51.8437 25.8486 51.5619 27.2454L51.3915 28.0905C51.3132 28.4787 51.3523 28.8814 51.5038 29.2472C51.6554 29.613 51.9125 29.9254 52.2423 30.1445L52.9604 30.6216C54.1473 31.4099 54.1473 33.1532 52.9604 33.9416L52.2423 34.4187C51.9125 34.6377 51.6553 34.9501 51.5038 35.316C51.3523 35.6818 51.3131 36.0845 51.3915 36.4726L51.5619 37.3177C51.8437 38.7145 50.6111 39.9471 49.2143 39.6653L48.3693 39.4948C47.9811 39.4165 47.5784 39.4557 47.2125 39.6072C46.8467 39.7588 46.5343 40.0158 46.3152 40.3457L45.8382 41.0638C45.0498 42.2507 43.3066 42.2507 42.5181 41.0638L42.0412 40.3457C41.8221 40.0158 41.5096 39.7587 41.1438 39.6072C40.7779 39.4556 40.3752 39.4165 39.9871 39.4948L39.142 39.6653C37.7452 39.9471 36.5126 38.7145 36.7944 37.3177L36.965 36.4726C37.0433 36.0845 37.0041 35.6818 36.8526 35.316C36.7011 34.9501 36.444 34.6378 36.1141 34.4187L35.396 33.9416C34.209 33.1532 34.209 31.4099 35.396 30.6216L36.1141 30.1445C36.444 29.9254 36.701 29.613 36.8526 29.2472C37.0041 28.8814 37.0432 28.4787 36.965 28.0905L36.7944 27.2454C36.5126 25.8486 37.7452 24.616 39.142 24.8978L39.9871 25.0684C40.3752 25.1466 40.7779 25.1075 41.1438 24.956C41.5096 24.8044 41.822 24.5473 42.0412 24.2175L42.5181 23.4994C43.3066 22.3125 45.0498 22.3125 45.8382 23.4994Z" stroke="#E9CD4D" stroke-width="3" stroke-miterlimit="10" stroke-linecap="round" stroke-linejoin="round"/>
<path d="M13.8713 14.119H43.1035" stroke="#E9CD4D" stroke-width="3" stroke-miterlimit="10" stroke-linecap="round" stroke-linejoin="round"/>
<path d="M49.4443 47.435V51.4978C49.4443 52.8318 47.8506 53.521 46.8785 52.6073L44.0707 50.0143L41.2629 52.6073C40.2908 53.521 38.6971 52.8318 38.6971 51.4978V47.435" stroke="#E9CD4D" stroke-width="3" stroke-miterlimit="10" stroke-linecap="round" stroke-linejoin="round"/>
</g>
</svg>
